# xmcd
#
# Track frame offsets: 
#        150
#        13128
#        30048
#        46788
#        65345
#        78840
#        93291
#        109338
#        126258
#        141988
#        160292
#        171870
#        189332
#        211648
#        230912
#
# Disc length: 3296 seconds
#
# Revision: 0
# Processed by: cddbd v1.5.2PL0 Copyright (c) Steve Scherf et al.
# Submitted via: ExactAudioCopy v0.95b1
#
DISCID=be0cde0f
DTITLE=Steve Barker - The Last Cowboy Song
DYEAR=2005
DGENRE=Country
TTITLE0=Faster Horses
TTITLE1=My Heros Have Always Been Cowboys
TTITLE2=Ghost Riders in the Sky
TTITLE3=We Robbed Trains
TTITLE4=Rhinestone Cowboy
TTITLE5=Streets of Laredo
TTITLE6=The Cowboy Rides Away
TTITLE7=Don't Take You Guns to Town
TTITLE8=Cool Water
TTITLE9=My Elusive Dreams
TTITLE10=Tumbling Tumbleweeds
TTITLE11=Big Iron
TTITLE12=El Paso
TTITLE13=El Paso City
TTITLE14=The Last Cowboy Song
EXTD=
EXTT0=
EXTT1=
EXTT2=
EXTT3=
EXTT4=
EXTT5=
EXTT6=
EXTT7=
EXTT8=
EXTT9=
EXTT10=
EXTT11=
EXTT12=
EXTT13=
EXTT14=
PLAYORDER=
